<?xml version="1.0" standalone="no"?>
<svg xmlns="http://www.w3.org/2000/svg" viewBox="0 0 92 60" width="92" height="60"><g fill="#d6af69" color="#d6af69" transform="translate(23.696 0) scale(0.44) "><g transform="translate(0.704, -20.786)"><svg width="100.0" height="67.739" x="-0.704" y="20.786" viewBox="-0.704 20.786 100 67.739"><path d="M98.686,41.55c-0.609-0.7-3.235-2.146-3.771-3.831c-1.465-5.305-7.68-7.251-7.68-7.251l0.667-9.682  c-2.757,0.841-6.581,4.013-10.58,8.03c-0.623-0.081-1.262-0.139-1.91-0.139c-4.592,0-8.683,2.139-11.346,5.463  c-5.792-4.752-12.1-8.063-22.343-7.699C20.039,27.218,8.152,41.867,4.252,62.13c-4.987,3.972-5.215,8.396-4.833,10.836  c1.16,7.44,9.97,12.845,15.854,14.304c17.662,4.384,35.815-2.925,46.243-18.61c1.399-2.102,0.827-4.941-1.279-6.341  c-2.1-1.398-4.938-0.826-6.339,1.275C45.636,76.021,31.34,81.831,17.475,78.39c-3.853-0.957-8.261-4.222-8.943-6.537l1.159,0.293  h31.521c4.022-2.448,7.594-5.837,10.406-10.067c2.232-3.363,6.787-4.275,10.146-2.043c3.358,2.234,4.277,6.785,2.043,10.146  c-0.448,0.669-0.912,1.32-1.384,1.964h19.023c-0.074-0.154,0.082-0.065,0.082-0.065c-0.158-0.237-1.931-2.989-2.128-6.117  c-0.375-5.922,3.597-10.823,3.597-10.823l0.041-0.059c12.408,2.168,15.094-5.622,15.781-9.412  C99.138,43.918,99.774,42.284,98.686,41.55z M88.248,40.189c-0.945,0-1.712-0.768-1.712-1.713c0-0.946,0.767-1.713,1.712-1.713  c0.947,0,1.713,0.768,1.713,1.713S89.195,40.189,88.248,40.189z"></path></svg></g></g><path fill="#154e2f" fill-rule="nonzero" d="M15.65 6.70L15.65 6.70Q15.65 7.85 15.13 8.87Q14.62 9.89 13.70 10.69Q12.79 11.50 11.57 12.05Q10.34 12.60 8.90 12.79L8.90 12.79Q9.26 13.87 9.78 15.01Q10.30 16.15 10.90 17.21Q11.50 18.26 12.14 19.15Q12.79 20.04 13.42 20.62L13.42 20.62Q13.30 20.86 13.07 21.10Q12.84 21.34 12.54 21.54Q12.24 21.74 11.92 21.88Q11.59 22.01 11.30 22.01L11.30 22.01Q10.78 22.01 10.30 21.50Q9.82 21 9.32 19.91Q8.83 18.82 8.29 17.08Q7.75 15.34 7.10 12.89L7.10 12.89Q6.84 12.89 6.58 12.89Q6.31 12.89 6.17 12.84L6.17 12.84Q6 12.74 5.81 12.50L5.81 12.50Q5.16 13.90 4.66 15.12Q4.15 16.34 3.76 17.48Q3.36 18.62 3.06 19.69Q2.76 20.76 2.54 21.86L2.54 21.86Q1.73 21.67 1.13 21.17Q0.53 20.66 0 19.75L0 19.75Q0.10 19.54 0.20 19.33Q0.31 19.13 0.48 18.76Q0.65 18.38 0.90 17.81Q1.15 17.23 1.57 16.27Q1.99 15.31 2.58 13.92Q3.17 12.53 4.01 10.54L4.01 10.54Q4.39 9.65 4.67 8.98Q4.94 8.30 5.16 7.69Q5.38 7.08 5.56 6.47Q5.74 5.86 5.93 5.06L5.93 5.06Q4.82 5.45 3.88 5.92Q2.93 6.38 2.30 6.91L2.30 6.91Q2.09 6.77 1.86 6.48Q1.63 6.19 1.44 5.84Q1.25 5.50 1.10 5.14Q0.96 4.78 0.94 4.49L0.94 4.49Q1.66 4.01 2.70 3.60Q3.74 3.19 4.92 2.89Q6.10 2.59 7.32 2.42Q8.54 2.26 9.60 2.26L9.60 2.26Q12.48 2.26 14.06 3.44Q15.65 4.63 15.65 6.70ZM9.50 4.22L9.79 4.68Q9.62 4.90 9.26 5.54Q8.90 6.19 8.44 7.09Q7.97 7.99 7.45 9.05Q6.94 10.10 6.46 11.14L6.46 11.14Q8.26 11.14 9.77 10.80Q11.28 10.46 12.38 9.85Q13.49 9.24 14.10 8.41Q14.71 7.58 14.71 6.58L14.71 6.58Q14.71 5.38 13.85 4.74Q12.98 4.10 11.18 4.10L11.18 4.10Q10.78 4.10 10.37 4.14Q9.96 4.18 9.50 4.22L9.50 4.22ZM23.40 9.98L23.40 9.98Q23.30 11.47 22.87 12.54Q22.44 13.61 21.64 14.41Q20.83 15.22 19.68 15.86Q18.53 16.51 16.99 17.11L16.99 17.11Q16.99 17.26 16.98 17.41Q16.97 17.57 16.97 17.74L16.97 17.74Q16.97 18.05 17.02 18.38Q17.06 18.72 17.18 19.01Q17.30 19.30 17.52 19.48Q17.74 19.66 18.07 19.66L18.07 19.66Q18.72 19.66 19.34 19.37Q19.97 19.08 20.53 18.66Q21.10 18.24 21.59 17.75Q22.08 17.26 22.46 16.85L22.46 16.85Q22.70 17.06 22.87 17.26L22.87 17.26Q21.79 18.70 20.51 19.64Q19.22 20.59 18.07 20.86L18.07 20.86Q16.42 20.66 15.49 19.64Q14.57 18.62 14.57 17.18L14.57 17.18Q14.57 16.20 14.84 15.18Q15.12 14.16 15.61 13.21Q16.10 12.26 16.76 11.42Q17.42 10.58 18.18 9.96Q18.94 9.34 19.74 8.98Q20.54 8.62 21.34 8.62L21.34 8.62Q22.44 8.76 23.40 9.98ZM21.74 10.78L21.74 10.78Q21.10 10.87 20.40 11.30Q19.70 11.74 19.09 12.46Q18.48 13.18 17.98 14.14Q17.47 15.10 17.18 16.20L17.18 16.20Q19.10 15.24 20.38 13.84Q21.65 12.43 21.74 10.78ZM24.48 18.38L24.48 18.38Q24.48 17.33 24.98 15.42Q25.49 13.51 26.40 10.97L26.40 10.97Q27.89 6.91 29.20 4.21Q30.50 1.51 31.75 0L31.75 0Q32.04 0.05 32.46 0.24Q32.88 0.43 33.29 0.66Q33.70 0.89 34.02 1.13Q34.34 1.37 34.44 1.51L34.44 1.51Q32.57 3.72 31.15 6.26Q29.74 8.81 28.56 12.10L28.56 12.10Q27.55 14.93 27.02 17.20Q26.50 19.46 26.50 20.98L26.50 20.98Q26.50 21.38 26.50 21.48Q26.50 21.58 26.52 21.67L26.52 21.67Q26.18 21.62 25.94 21.50Q25.70 21.38 25.63 21.22L25.63 21.22Q25.58 21.10 25.37 20.87Q25.15 20.64 24.98 20.52L24.98 20.52Q24.77 20.38 24.62 19.76Q24.48 19.15 24.48 18.38ZM38.35 10.22L38.35 10.22Q38.59 10.22 38.92 10.31Q39.24 10.39 39.50 10.52Q39.77 10.66 39.95 10.80Q40.13 10.94 40.13 11.06L40.13 11.06Q39.65 12.07 39.24 13.09Q38.83 14.11 38.54 15.05Q38.26 15.98 38.10 16.80Q37.94 17.62 37.94 18.22L37.94 18.22Q37.94 18.89 38.09 19.33Q38.23 19.78 38.57 19.97L38.57 19.97Q38.28 20.16 37.82 20.28Q37.37 20.40 37.01 20.40L37.01 20.40Q35.71 20.40 35.71 18.62L35.71 18.62Q35.71 17.26 36.62 14.88L36.62 14.88Q36.14 15.98 35.52 16.96Q34.90 17.93 34.25 18.67Q33.60 19.42 32.94 19.88Q32.28 20.35 31.73 20.45L31.73 20.45Q30.84 20.40 30.29 19.60Q29.74 18.79 29.74 17.54L29.74 17.54Q29.74 16.20 30.31 14.71Q30.89 13.22 31.79 11.95Q32.69 10.68 33.74 9.83Q34.80 8.98 35.78 8.93L35.78 8.93Q36.02 9.00 36.32 9.22Q36.62 9.43 36.90 9.72Q37.18 10.01 37.37 10.31Q37.56 10.61 37.58 10.82L37.58 10.82Q36.62 10.97 35.60 11.76Q34.58 12.55 33.76 13.67Q32.93 14.78 32.40 16.06Q31.87 17.33 31.87 18.43L31.87 18.43Q31.87 18.89 32.21 19.01L32.21 19.01Q32.90 18.86 33.82 17.82Q34.73 16.78 36.02 14.59L36.02 14.59Q36.26 14.16 36.56 13.63Q36.86 13.10 37.18 12.53Q37.49 11.95 37.79 11.36Q38.09 10.78 38.35 10.22ZM48.82 19.78L48.82 19.78Q48.55 20.18 47.99 20.44Q47.42 20.69 46.92 20.74L46.92 20.74Q46.51 20.26 46.01 19.43Q45.50 18.60 45.05 17.50L45.05 17.50Q43.82 18.60 42.60 19.50Q41.38 20.40 40.32 21.02L40.32 21.02Q40.06 20.98 39.89 20.74Q39.72 20.50 39.70 20.11L39.70 20.11Q40.18 19.85 40.84 19.42Q41.50 18.98 42.18 18.47Q42.86 17.95 43.50 17.39Q44.14 16.82 44.59 16.30L44.59 16.30Q44.18 15.34 43.84 14.32Q43.49 13.30 43.24 12.35Q42.98 11.40 42.84 10.62Q42.70 9.84 42.70 9.36L42.70 9.36Q42.70 9.02 42.78 8.92Q42.86 8.81 43.18 8.81L43.18 8.81Q43.42 8.81 43.76 8.86Q44.11 8.90 44.47 8.98Q44.83 9.05 45.19 9.13Q45.55 9.22 45.82 9.31L45.82 9.31Q45.77 9.58 45.77 9.77Q45.77 9.96 45.77 10.32L45.77 10.32Q45.77 11.26 45.92 12.23Q46.08 13.20 46.44 14.33L46.44 14.33Q47.42 13.20 48.26 11.82Q49.10 10.44 49.97 8.52L49.97 8.52Q50.57 8.64 51 8.87Q51.43 9.10 51.55 9.36L51.55 9.36Q51.29 10.46 50.06 12.14Q48.84 13.82 46.94 15.72L46.94 15.72Q47.28 16.63 47.76 17.65Q48.24 18.67 48.82 19.78ZM58.37 15.22L58.37 15.22Q58.37 13.54 58.76 11.92Q59.16 10.30 59.88 8.84Q60.60 7.39 61.60 6.18Q62.59 4.97 63.78 4.08Q64.97 3.19 66.31 2.70Q67.66 2.21 69.07 2.21L69.07 2.21Q70.73 2.21 71.65 2.90Q72.58 3.60 72.58 4.85L72.58 4.85Q72.58 5.33 72.44 5.83Q72.31 6.34 72.06 6.83Q71.81 7.32 71.47 7.78Q71.14 8.23 70.73 8.57L70.73 8.57Q70.10 8.47 69.65 8.00Q69.19 7.54 69.07 6.91L69.07 6.91Q69.91 6.22 70.40 5.46Q70.90 4.70 70.90 4.08L70.90 4.08Q70.90 3.02 69.58 3.02L69.58 3.02Q69.02 3.02 68.44 3.25Q67.85 3.48 67.25 3.89Q66.65 4.30 66.08 4.87Q65.52 5.45 65.04 6.14L65.04 6.14Q61.70 10.94 61.70 15.96L61.70 15.96Q61.70 17.74 62.26 18.82Q62.81 19.90 63.72 20.09L63.72 20.09Q64.75 19.85 66.34 18.77Q67.92 17.69 69.79 15.96L69.79 15.96Q70.03 16.20 70.08 16.46L70.08 16.46Q69.38 17.38 68.64 18.22Q67.90 19.06 67.16 19.75Q66.43 20.45 65.72 20.98Q65.02 21.50 64.42 21.79L64.42 21.79Q61.44 21.74 59.90 20.09Q58.37 18.43 58.37 15.22ZM80.06 10.22L80.06 10.22Q80.30 10.22 80.63 10.31Q80.95 10.39 81.22 10.52Q81.48 10.66 81.66 10.80Q81.84 10.94 81.84 11.06L81.84 11.06Q81.36 12.07 80.95 13.09Q80.54 14.11 80.26 15.05Q79.97 15.98 79.81 16.80Q79.66 17.62 79.66 18.22L79.66 18.22Q79.66 18.89 79.80 19.33Q79.94 19.78 80.28 19.97L80.28 19.97Q79.99 20.16 79.54 20.28Q79.08 20.40 78.72 20.40L78.72 20.40Q77.42 20.40 77.42 18.62L77.42 18.62Q77.42 17.26 78.34 14.88L78.34 14.88Q77.86 15.98 77.23 16.96Q76.61 17.93 75.96 18.67Q75.31 19.42 74.65 19.88Q73.99 20.35 73.44 20.45L73.44 20.45Q72.55 20.40 72 19.60Q71.45 18.79 71.45 17.54L71.45 17.54Q71.45 16.20 72.02 14.71Q72.60 13.22 73.50 11.95Q74.40 10.68 75.46 9.83Q76.51 8.98 77.50 8.93L77.50 8.93Q77.74 9.00 78.04 9.22Q78.34 9.43 78.61 9.72Q78.89 10.01 79.08 10.31Q79.27 10.61 79.30 10.82L79.30 10.82Q78.34 10.97 77.32 11.76Q76.30 12.55 75.47 13.67Q74.64 14.78 74.11 16.06Q73.58 17.33 73.58 18.43L73.58 18.43Q73.58 18.89 73.92 19.01L73.92 19.01Q74.62 18.86 75.53 17.82Q76.44 16.78 77.74 14.59L77.74 14.59Q77.98 14.16 78.28 13.63Q78.58 13.10 78.89 12.53Q79.20 11.95 79.50 11.36Q79.80 10.78 80.06 10.22ZM85.44 10.73L84.07 10.73Q83.95 10.58 83.86 10.12Q83.76 9.65 83.76 9.31L83.76 9.31Q84.38 9.36 84.96 9.40Q85.54 9.43 86.02 9.46L86.02 9.46Q86.38 8.74 86.80 8.03Q87.22 7.32 87.61 6.73Q88.01 6.14 88.36 5.74Q88.70 5.33 88.90 5.21L88.90 5.21Q89.14 5.21 89.51 5.29Q89.88 5.38 90.26 5.51Q90.65 5.64 90.96 5.78Q91.27 5.93 91.39 6.07L91.39 6.07Q90.67 6.98 90.16 7.76Q89.64 8.54 89.04 9.55L89.04 9.55Q89.52 9.55 90.01 9.53Q90.50 9.50 91.01 9.46L91.01 9.46Q91.13 9.58 91.20 9.76Q91.27 9.94 91.27 10.13L91.27 10.13Q90.10 10.56 88.42 10.61L88.42 10.61Q87.82 11.76 87.35 12.90Q86.88 14.04 86.56 15.10Q86.23 16.15 86.05 17.09Q85.87 18.02 85.87 18.77L85.87 18.77Q85.87 19.82 86.66 19.94L86.66 19.94Q87.38 19.85 88.03 19.58Q88.68 19.32 89.18 18.91L89.18 18.91Q89.33 19.13 89.35 19.27L89.35 19.27Q89.21 19.49 88.86 19.78Q88.51 20.06 88.10 20.34Q87.70 20.62 87.31 20.81Q86.93 21 86.74 21.02L86.74 21.02Q86.14 21 85.54 20.76Q84.94 20.52 84.44 20.16Q83.95 19.80 83.64 19.36Q83.33 18.91 83.33 18.48L83.33 18.48Q83.33 17.90 83.48 17.03Q83.64 16.15 83.93 15.12Q84.22 14.09 84.60 12.96Q84.98 11.83 85.44 10.73L85.44 10.73Z" transform="translate(0, 37.806)"></path></svg>